<svg width="343" height="548" viewBox="0 0 343 548" fill="none" xmlns="http://www.w3.org/2000/svg">
<g opacity="0.05" clip-path="url(#clip0_5233_17827)">
<path d="M240.061 553.486L583.789 5.37364L919 551.694" stroke="url(#paint0_linear_5233_17827)" stroke-width="4" stroke-miterlimit="10"/>
<path d="M258.889 553.486L584.125 35.4884L901.068 551.694" stroke="url(#paint1_linear_5233_17827)" stroke-width="4" stroke-miterlimit="10"/>
<path d="M277.717 553.486L584.462 65.6033L883.025 551.694" stroke="url(#paint2_linear_5233_17827)" stroke-width="4" stroke-miterlimit="10"/>
<path d="M296.546 553.486L584.798 95.7181L864.981 551.694" stroke="url(#paint3_linear_5233_17827)" stroke-width="4" stroke-miterlimit="10"/>
<path d="M315.374 553.486L585.134 125.945L846.937 551.694" stroke="url(#paint4_linear_5233_17827)" stroke-width="4" stroke-miterlimit="10"/>
<path d="M334.202 553.486L585.47 156.06L828.893 551.694" stroke="url(#paint5_linear_5233_17827)" stroke-width="4" stroke-miterlimit="10"/>
<path d="M0 553.486L343.728 5.37364L679.051 551.694" stroke="url(#paint6_linear_5233_17827)" stroke-width="4" stroke-miterlimit="10"/>
<path d="M18.8282 553.486L344.177 35.4884L661.008 551.694" stroke="url(#paint7_linear_5233_17827)" stroke-width="4" stroke-miterlimit="10"/>
<path d="M37.6566 553.486L344.513 65.6033L642.964 551.694" stroke="url(#paint8_linear_5233_17827)" stroke-width="4" stroke-miterlimit="10"/>
<path d="M56.4849 553.486L344.849 95.7181L625.032 551.694" stroke="url(#paint9_linear_5233_17827)" stroke-width="4" stroke-miterlimit="10"/>
<path d="M75.3132 553.486L345.185 125.945L606.988 551.694" stroke="url(#paint10_linear_5233_17827)" stroke-width="4" stroke-miterlimit="10"/>
<path d="M94.1415 553.486L345.522 156.06L588.945 551.694" stroke="url(#paint11_linear_5233_17827)" stroke-width="4" stroke-miterlimit="10"/>
<path d="M112.97 553.486L345.858 186.174L570.901 551.694" stroke="url(#paint12_linear_5233_17827)" stroke-width="4" stroke-miterlimit="10"/>
<path d="M131.798 553.486L346.306 216.289L552.857 551.694" stroke="url(#paint13_linear_5233_17827)" stroke-width="4" stroke-miterlimit="10"/>
<path d="M150.626 553.486L346.642 246.404L534.813 551.694" stroke="url(#paint14_linear_5233_17827)" stroke-width="4" stroke-miterlimit="10"/>
<path d="M169.455 553.486L346.979 276.519L516.769 551.694" stroke="url(#paint15_linear_5233_17827)" stroke-width="4" stroke-miterlimit="10"/>
</g>
<defs>
<linearGradient id="paint0_linear_5233_17827" x1="579.53" y1="5.37364" x2="579.53" y2="553.486" gradientUnits="userSpaceOnUse">
<stop stop-color="white"/>
<stop offset="0.596154"/>
</linearGradient>
<linearGradient id="paint1_linear_5233_17827" x1="579.979" y1="35.4884" x2="579.979" y2="553.486" gradientUnits="userSpaceOnUse">
<stop stop-color="white"/>
<stop offset="0.596154"/>
</linearGradient>
<linearGradient id="paint2_linear_5233_17827" x1="580.371" y1="65.6033" x2="580.371" y2="553.486" gradientUnits="userSpaceOnUse">
<stop stop-color="white"/>
<stop offset="0.596154"/>
</linearGradient>
<linearGradient id="paint3_linear_5233_17827" x1="580.763" y1="95.7181" x2="580.763" y2="553.486" gradientUnits="userSpaceOnUse">
<stop stop-color="white"/>
<stop offset="0.596154"/>
</linearGradient>
<linearGradient id="paint4_linear_5233_17827" x1="581.155" y1="125.945" x2="581.155" y2="553.486" gradientUnits="userSpaceOnUse">
<stop stop-color="white"/>
<stop offset="0.596154"/>
</linearGradient>
<linearGradient id="paint5_linear_5233_17827" x1="581.548" y1="156.06" x2="581.548" y2="553.486" gradientUnits="userSpaceOnUse">
<stop stop-color="white"/>
<stop offset="0.596154"/>
</linearGradient>
<linearGradient id="paint6_linear_5233_17827" x1="339.526" y1="5.37364" x2="339.526" y2="553.486" gradientUnits="userSpaceOnUse">
<stop stop-color="white"/>
<stop offset="0.596154"/>
</linearGradient>
<linearGradient id="paint7_linear_5233_17827" x1="339.918" y1="35.4884" x2="339.918" y2="553.486" gradientUnits="userSpaceOnUse">
<stop stop-color="white"/>
<stop offset="0.596154"/>
</linearGradient>
<linearGradient id="paint8_linear_5233_17827" x1="340.31" y1="65.6033" x2="340.31" y2="553.486" gradientUnits="userSpaceOnUse">
<stop stop-color="white"/>
<stop offset="0.596154"/>
</linearGradient>
<linearGradient id="paint9_linear_5233_17827" x1="340.758" y1="95.7181" x2="340.758" y2="553.486" gradientUnits="userSpaceOnUse">
<stop stop-color="white"/>
<stop offset="0.596154"/>
</linearGradient>
<linearGradient id="paint10_linear_5233_17827" x1="341.151" y1="125.945" x2="341.151" y2="553.486" gradientUnits="userSpaceOnUse">
<stop stop-color="white"/>
<stop offset="0.596154"/>
</linearGradient>
<linearGradient id="paint11_linear_5233_17827" x1="341.543" y1="156.06" x2="341.543" y2="553.486" gradientUnits="userSpaceOnUse">
<stop stop-color="white"/>
<stop offset="0.596154"/>
</linearGradient>
<linearGradient id="paint12_linear_5233_17827" x1="341.935" y1="186.174" x2="341.935" y2="553.486" gradientUnits="userSpaceOnUse">
<stop stop-color="white"/>
<stop offset="0.596154"/>
</linearGradient>
<linearGradient id="paint13_linear_5233_17827" x1="342.328" y1="216.289" x2="342.328" y2="553.486" gradientUnits="userSpaceOnUse">
<stop stop-color="white"/>
<stop offset="0.596154"/>
</linearGradient>
<linearGradient id="paint14_linear_5233_17827" x1="342.72" y1="246.404" x2="342.72" y2="553.486" gradientUnits="userSpaceOnUse">
<stop stop-color="white"/>
<stop offset="0.596154"/>
</linearGradient>
<linearGradient id="paint15_linear_5233_17827" x1="343.112" y1="276.519" x2="343.112" y2="553.486" gradientUnits="userSpaceOnUse">
<stop stop-color="white"/>
<stop offset="0.596154"/>
</linearGradient>
<clipPath id="clip0_5233_17827">
<rect width="919" height="548" fill="white"/>
</clipPath>
</defs>
</svg>
