<svg width="13" height="24" viewBox="0 0 13 24" fill="none" xmlns="http://www.w3.org/2000/svg">
<path d="M11.5284 12.9691L12.167 8.80129H8.16853V6.09599C8.1411 5.78575 8.18352 5.4733 8.29268 5.18161C8.40184 4.88991 8.57495 4.62637 8.79931 4.41036C9.02367 4.19434 9.29358 4.03132 9.5892 3.93329C9.88482 3.83526 10.1986 3.80471 10.5076 3.84386H12.3386V0.29631C11.2705 0.123795 10.1911 0.0297055 9.1092 0.0147945C8.36524 -0.042063 7.61788 0.0654039 6.92008 0.329579C6.22228 0.593754 5.59112 1.00817 5.07134 1.54346C4.55155 2.07875 4.15586 2.72182 3.91231 3.42708C3.66875 4.13234 3.5833 4.88254 3.66199 5.62451V8.80129H0V12.9691H3.66199V23.0396H8.16853V12.9691H11.5284Z" fill="white"/>
</svg>
