<svg width="20" height="19" viewBox="0 0 20 19" fill="none" xmlns="http://www.w3.org/2000/svg">
<path d="M4.25945 19.0058H0.315241V6.30252H4.25945V19.0058ZM2.28506 4.57035C1.83408 4.57033 1.39318 4.43686 1.01789 4.18676C0.64261 3.93666 0.34972 3.5811 0.17611 3.16487C0.00249879 2.74864 -0.04407 2.29034 0.0422677 1.8477C0.128605 1.40505 0.343989 0.997851 0.661295 0.677372C0.9786 0.356894 1.38364 0.137469 1.8254 0.0467315C2.26717 -0.0440063 2.7259 -0.00199984 3.14384 0.167461C3.56178 0.336922 3.92023 0.626259 4.17406 0.999036C4.42788 1.37181 4.56573 1.81136 4.57024 2.26233C4.57147 2.87088 4.33182 3.45519 3.90366 3.88763C3.47549 4.32008 2.8936 4.56552 2.28506 4.57035ZM19.0217 19.0058H15.082V12.8221C15.082 11.3482 15.0523 9.45834 13.0254 9.45834C10.9984 9.45834 10.6602 11.058 10.6602 12.7147V19.0058H6.72973V6.30252H10.5117V8.03468H10.5665C10.9442 7.3862 11.4907 6.85239 12.1479 6.49019C12.8051 6.12798 13.5483 5.95096 14.2982 5.97802C18.2904 5.97802 19.024 8.60597 19.024 12.0223L19.0217 19.0058Z" fill="white"/>
</svg>
