<svg width="109" height="40" viewBox="0 0 109 40" fill="none" xmlns="http://www.w3.org/2000/svg">
<g clip-path="url(#clip0_6613_414)">
<path d="M22.5061 0H26.597C29.9364 0.2 33.3061 0.6 36.4697 1.75152C36.1606 4.59697 35.8667 7.44546 35.5939 10.2939C31.6303 8.02424 26.8576 7.29091 22.3667 8.00909C19.497 8.45758 16.5848 9.37879 14.3939 11.3606C12.3667 13.1667 11.0909 15.7879 10.9 18.4939C10.4515 22.1364 11.2818 26.1121 13.9182 28.7939C15.8909 30.9 18.7 32.0333 21.5152 32.4485C23.4697 32.6727 25.503 32.6697 27.3667 31.9606C25.6455 34.6242 23.9697 37.3152 22.2545 39.9848C20.0818 39.8212 17.8545 40.2121 15.7273 39.603C11.803 38.6303 7.95152 36.897 5.11515 33.9485C1.92424 30.8121 0.315152 26.3606 0 21.9576V18.5909C0.290909 13.9576 1.91212 9.21212 5.37576 5.98485C9.93333 1.66667 16.4303 0.324242 22.5061 0Z" fill="white"/>
<path d="M76.6424 0.99697C82.403 0.981819 88.1667 0.99091 93.9303 0.99091C96.6394 0.987879 99.4545 1.15758 101.952 2.3C107.4 4.91515 109.676 12.2879 106.967 17.6212C105.906 20.0939 103.703 21.8333 101.294 22.903C101.991 24.2606 102.579 25.6697 103.124 27.0939C104.936 31.3909 106.761 35.6818 108.524 40H98.3333C96.3455 34.8848 94.4 29.7545 92.3636 24.6576C90.1788 24.6576 87.9939 24.6697 85.8121 24.6515C85.8152 29.7667 85.8061 34.8848 85.8182 40H85.6606C82.7545 34.8394 79.5636 29.8455 76.6424 24.697C76.6242 16.797 76.6303 8.89697 76.6424 0.99697ZM85.8121 8.72121C85.8121 11.3848 85.8121 14.0485 85.8121 16.7152C89.4576 16.7394 93.103 16.6848 96.7455 16.7424C98.2515 15.497 98.9697 13.2455 98.3758 11.3697C97.9515 10.3242 97.3909 9.22727 96.3333 8.7C92.8273 8.74546 89.3182 8.70909 85.8121 8.72121Z" fill="white"/>
<path d="M24.4455 16.8485C28.6243 16.7485 32.8061 16.8273 36.9879 16.8091C35.4879 19.2697 33.8849 21.6667 32.3758 24.1212C29.7333 24.0909 27.0849 24.1818 24.4455 24.0727C24.4849 21.6667 24.4849 19.2576 24.4455 16.8485Z" fill="white"/>
<path d="M36.9879 16.8091C40.2303 11.7121 43.5182 6.64545 46.7 1.50909C49.2606 5.7303 51.7939 9.96666 54.2788 14.2303C54.3788 14.4061 54.5818 14.7545 54.6818 14.9303C52.8333 17.9545 50.9182 20.9364 49.0758 23.9667C48.303 22.8212 47.6697 21.5909 46.9788 20.397C42.6727 26.9545 38.2788 33.4545 33.9576 40H22.5152L22.2545 39.9848C23.9697 37.3151 25.6455 34.6242 27.3667 31.9606C29.0242 29.3394 30.6697 26.7091 32.3758 24.1212C33.8848 21.6667 35.4879 19.2697 36.9879 16.8091Z" fill="#ED1C24"/>
<path d="M59.3485 26.6485C59.7364 26.0364 60.0909 25.3727 60.7 24.9455C63.7 29.9606 66.7182 34.9606 69.6727 40H58.1697L58.4849 39.9273C57.297 38.0333 56.1424 36.1091 55.0879 34.1394C55.0455 34.0152 54.9606 33.7667 54.9182 33.6455C56.3394 31.2788 57.9061 29.003 59.3485 26.6485Z" fill="#ED1C24"/>
<path d="M62.8485 1.77273C63.5152 2.54242 63.9636 3.46364 64.4727 4.33939C68.5546 11.1091 72.5546 17.9303 76.6424 24.697C79.5636 29.8455 82.7546 34.8394 85.6606 40H74.5242C71.1576 34.2879 67.8182 28.5576 64.4424 22.8485C64.0455 22.103 63.6273 21.3636 63.1121 20.6909C62.5546 21.6424 61.9909 22.5909 61.3546 23.4909C61.0697 23.9394 60.6485 24.3727 60.7 24.9455C60.0909 25.3727 59.7364 26.0364 59.3485 26.6485C57.9061 29.003 56.3394 31.2788 54.9182 33.6455C54.9606 33.7667 55.0455 34.0152 55.0879 34.1394C54.9788 34.097 54.7606 34.0091 54.6515 33.9636C53.3758 35.9788 52.0758 37.9727 50.8242 40H39.0788C42.4091 34.6545 45.7394 29.3091 49.0758 23.9667C50.9182 20.9364 52.8333 17.9545 54.6818 14.9303C54.5818 14.7545 54.3788 14.4061 54.2788 14.2303C54.4273 14.3576 54.7273 14.6152 54.8758 14.7424C57.4485 10.3697 60.303 6.16061 62.8485 1.77273Z" fill="#FAAB53"/>
</g>
<defs>
<clipPath id="clip0_6613_414">
<rect width="108.485" height="40" fill="white"/>
</clipPath>
</defs>
</svg>
