<svg width="22" height="16" viewBox="0 0 22 16" fill="none" xmlns="http://www.w3.org/2000/svg">
<path d="M21.3504 2.4039C21.2271 1.9399 20.984 1.51644 20.6456 1.17591C20.3071 0.835382 19.8852 0.58973 19.422 0.463548C16.5958 0.123537 13.7502 -0.0297194 10.9039 0.00477601C8.05687 -0.0298068 5.21068 0.12345 2.38384 0.463548C1.92061 0.58973 1.49866 0.835382 1.16022 1.17591C0.821779 1.51644 0.578731 1.9399 0.455405 2.4039C0.141361 4.14707 -0.0108867 5.91553 0.000604966 7.68673C-0.0108867 9.45792 0.141361 11.2264 0.455405 12.9696C0.57973 13.4296 0.823649 13.8485 1.16237 14.1838C1.50108 14.519 1.92252 14.7586 2.38384 14.8781C5.21068 15.2182 8.05687 15.3715 10.9039 15.3369C13.7509 15.3715 16.5971 15.2182 19.4239 14.8781C19.8853 14.7586 20.3067 14.519 20.6454 14.1838C20.9841 13.8485 21.228 13.4296 21.3524 12.9696C21.6664 11.2264 21.8187 9.45792 21.8072 7.68673C21.8187 5.91553 21.6644 4.14707 21.3504 2.4039ZM8.67358 10.9279V4.44354L14.3735 7.68673L8.67358 10.9279Z" fill="white"/>
</svg>
