<svg width="450" height="550" viewBox="0 0 450 550" fill="none" xmlns="http://www.w3.org/2000/svg">
<path d="M0 7.99999C0 3.58171 3.58172 0 8 0H442C446.418 0 450 3.58172 450 8V542C450 546.418 446.418 550 442 550H8.00001C3.58173 550 0 546.418 0 542V7.99999Z" fill="#305FAB"/>
<g opacity="0.05" clip-path="url(#clip0_0_3183)">
<path fill-rule="evenodd" clip-rule="evenodd" d="M475.835 465.452L538.348 565.608H727.874L574.075 312.784L475.835 465.483V465.452ZM-67.9097 564.615H130.524L337.897 240.388L377.596 303.85L473.849 148.173L333.924 -80.8604L-67.9097 564.615Z" fill="white"/>
<path fill-rule="evenodd" clip-rule="evenodd" d="M212.869 566.6H411.334L618.707 242.373L818.134 564.615H1007.66L614.734 -78.8755L212.869 566.6Z" fill="white"/>
</g>
<defs>
<clipPath id="clip0_0_3183">
<rect width="450" height="550" fill="white"/>
</clipPath>
</defs>
</svg>
