<svg width="1920" height="986" viewBox="0 0 1920 986" fill="none" xmlns="http://www.w3.org/2000/svg">
<g opacity="0.05">
<g clip-path="url(#clip0_7713_1699)">
<path d="M1594.68 812.25L2018.04 8.29834L2430.91 809.623" stroke="url(#paint0_linear_7713_1699)" stroke-width="4" stroke-miterlimit="10"/>
<path d="M1617.87 812.25L2018.46 52.4697L2408.83 809.623" stroke="url(#paint1_linear_7713_1699)" stroke-width="4" stroke-miterlimit="10"/>
<path d="M1641.06 812.25L2018.87 96.6411L2386.6 809.623" stroke="url(#paint2_linear_7713_1699)" stroke-width="4" stroke-miterlimit="10"/>
<path d="M1664.25 812.25L2019.28 140.812L2364.38 809.623" stroke="url(#paint3_linear_7713_1699)" stroke-width="4" stroke-miterlimit="10"/>
<path d="M1687.44 812.25L2019.7 185.148L2342.16 809.623" stroke="url(#paint4_linear_7713_1699)" stroke-width="4" stroke-miterlimit="10"/>
<path d="M1710.63 812.25L2020.11 229.319L2319.93 809.623" stroke="url(#paint5_linear_7713_1699)" stroke-width="4" stroke-miterlimit="10"/>
<path d="M1733.82 812.25L2020.66 273.491L2297.71 809.623" stroke="url(#paint6_linear_7713_1699)" stroke-width="4" stroke-miterlimit="10"/>
<path d="M1757.01 812.25L2021.08 317.662L2275.48 809.623" stroke="url(#paint7_linear_7713_1699)" stroke-width="4" stroke-miterlimit="10"/>
<path d="M1780.2 812.25L2021.49 361.833L2253.26 809.623" stroke="url(#paint8_linear_7713_1699)" stroke-width="4" stroke-miterlimit="10"/>
<path d="M1803.39 812.25L2021.91 406.005L2231.03 809.623" stroke="url(#paint9_linear_7713_1699)" stroke-width="4" stroke-miterlimit="10"/>
<path d="M1299 812.25L1722.36 8.29834L2135.37 809.623" stroke="url(#paint10_linear_7713_1699)" stroke-width="4" stroke-miterlimit="10"/>
<path d="M1322.19 812.25L1722.92 52.4697L2113.15 809.623" stroke="url(#paint11_linear_7713_1699)" stroke-width="4" stroke-miterlimit="10"/>
<path d="M1345.38 812.25L1723.33 96.6411L2090.93 809.623" stroke="url(#paint12_linear_7713_1699)" stroke-width="4" stroke-miterlimit="10"/>
<path d="M1368.57 812.25L1723.74 140.812L2068.84 809.623" stroke="url(#paint13_linear_7713_1699)" stroke-width="4" stroke-miterlimit="10"/>
<path d="M1391.76 812.25L1724.16 185.148L2046.62 809.623" stroke="url(#paint14_linear_7713_1699)" stroke-width="4" stroke-miterlimit="10"/>
<path d="M1414.95 812.25L1724.57 229.319L2024.39 809.623" stroke="url(#paint15_linear_7713_1699)" stroke-width="4" stroke-miterlimit="10"/>
<path d="M1438.14 812.25L1724.99 273.491L2002.17 809.623" stroke="url(#paint16_linear_7713_1699)" stroke-width="4" stroke-miterlimit="10"/>
<path d="M1461.33 812.25L1725.54 317.662L1979.94 809.623" stroke="url(#paint17_linear_7713_1699)" stroke-width="4" stroke-miterlimit="10"/>
<path d="M1484.52 812.25L1725.95 361.833L1957.72 809.623" stroke="url(#paint18_linear_7713_1699)" stroke-width="4" stroke-miterlimit="10"/>
<path d="M1507.71 812.25L1726.37 406.005L1935.49 809.623" stroke="url(#paint19_linear_7713_1699)" stroke-width="4" stroke-miterlimit="10"/>
</g>
</g>
<g opacity="0.05">
<g clip-path="url(#clip1_7713_1699)">
<path d="M-242.322 1088.11L181.041 284.162L593.914 1085.49" stroke="url(#paint20_linear_7713_1699)" stroke-width="4" stroke-miterlimit="10"/>
<path d="M-219.132 1088.11L181.455 328.333L571.827 1085.49" stroke="url(#paint21_linear_7713_1699)" stroke-width="4" stroke-miterlimit="10"/>
<path d="M-195.941 1088.11L181.869 372.505L549.603 1085.49" stroke="url(#paint22_linear_7713_1699)" stroke-width="4" stroke-miterlimit="10"/>
<path d="M-172.751 1088.11L182.283 416.676L527.379 1085.49" stroke="url(#paint23_linear_7713_1699)" stroke-width="4" stroke-miterlimit="10"/>
<path d="M-149.561 1088.11L182.698 461.011L505.155 1085.49" stroke="url(#paint24_linear_7713_1699)" stroke-width="4" stroke-miterlimit="10"/>
<path d="M-126.37 1088.11L183.112 505.183L482.931 1085.49" stroke="url(#paint25_linear_7713_1699)" stroke-width="4" stroke-miterlimit="10"/>
<path d="M-103.18 1088.11L183.664 549.354L460.707 1085.49" stroke="url(#paint26_linear_7713_1699)" stroke-width="4" stroke-miterlimit="10"/>
<path d="M-79.9893 1088.11L184.078 593.526L438.483 1085.49" stroke="url(#paint27_linear_7713_1699)" stroke-width="4" stroke-miterlimit="10"/>
<path d="M-56.7988 1088.11L184.492 637.697L416.258 1085.49" stroke="url(#paint28_linear_7713_1699)" stroke-width="4" stroke-miterlimit="10"/>
<path d="M-33.6084 1088.11L184.906 681.868L394.034 1085.49" stroke="url(#paint29_linear_7713_1699)" stroke-width="4" stroke-miterlimit="10"/>
<path d="M-538 1088.11L-114.637 284.162L298.374 1085.49" stroke="url(#paint30_linear_7713_1699)" stroke-width="4" stroke-miterlimit="10"/>
<path d="M-514.81 1088.11L-114.084 328.333L276.15 1085.49" stroke="url(#paint31_linear_7713_1699)" stroke-width="4" stroke-miterlimit="10"/>
<path d="M-491.619 1088.11L-113.67 372.505L253.926 1085.49" stroke="url(#paint32_linear_7713_1699)" stroke-width="4" stroke-miterlimit="10"/>
<path d="M-468.429 1088.11L-113.256 416.676L231.84 1085.49" stroke="url(#paint33_linear_7713_1699)" stroke-width="4" stroke-miterlimit="10"/>
<path d="M-445.238 1088.11L-112.842 461.011L209.615 1085.49" stroke="url(#paint34_linear_7713_1699)" stroke-width="4" stroke-miterlimit="10"/>
<path d="M-422.048 1088.11L-112.428 505.183L187.391 1085.49" stroke="url(#paint35_linear_7713_1699)" stroke-width="4" stroke-miterlimit="10"/>
<path d="M-398.857 1088.11L-112.014 549.354L165.167 1085.49" stroke="url(#paint36_linear_7713_1699)" stroke-width="4" stroke-miterlimit="10"/>
<path d="M-375.667 1088.11L-111.462 593.526L142.943 1085.49" stroke="url(#paint37_linear_7713_1699)" stroke-width="4" stroke-miterlimit="10"/>
<path d="M-352.477 1088.11L-111.048 637.697L120.719 1085.49" stroke="url(#paint38_linear_7713_1699)" stroke-width="4" stroke-miterlimit="10"/>
<path d="M-329.286 1088.11L-110.633 681.868L98.4945 1085.49" stroke="url(#paint39_linear_7713_1699)" stroke-width="4" stroke-miterlimit="10"/>
</g>
</g>
<defs>
<linearGradient id="paint0_linear_7713_1699" x1="2012.8" y1="8.29834" x2="2012.8" y2="812.25" gradientUnits="userSpaceOnUse">
<stop stop-color="white"/>
<stop offset="1" stop-color="#003366"/>
</linearGradient>
<linearGradient id="paint1_linear_7713_1699" x1="2013.35" y1="52.4697" x2="2013.35" y2="812.25" gradientUnits="userSpaceOnUse">
<stop stop-color="white"/>
<stop offset="1" stop-color="#003366"/>
</linearGradient>
<linearGradient id="paint2_linear_7713_1699" x1="2013.83" y1="96.6411" x2="2013.83" y2="812.25" gradientUnits="userSpaceOnUse">
<stop stop-color="white"/>
<stop offset="1" stop-color="#003366"/>
</linearGradient>
<linearGradient id="paint3_linear_7713_1699" x1="2014.31" y1="140.812" x2="2014.31" y2="812.25" gradientUnits="userSpaceOnUse">
<stop stop-color="white"/>
<stop offset="1" stop-color="#003366"/>
</linearGradient>
<linearGradient id="paint4_linear_7713_1699" x1="2014.8" y1="185.148" x2="2014.8" y2="812.25" gradientUnits="userSpaceOnUse">
<stop stop-color="white"/>
<stop offset="1" stop-color="#003366"/>
</linearGradient>
<linearGradient id="paint5_linear_7713_1699" x1="2015.28" y1="229.319" x2="2015.28" y2="812.25" gradientUnits="userSpaceOnUse">
<stop stop-color="white"/>
<stop offset="1" stop-color="#003366"/>
</linearGradient>
<linearGradient id="paint6_linear_7713_1699" x1="2015.76" y1="273.491" x2="2015.76" y2="812.25" gradientUnits="userSpaceOnUse">
<stop stop-color="white"/>
<stop offset="1" stop-color="#003366"/>
</linearGradient>
<linearGradient id="paint7_linear_7713_1699" x1="2016.25" y1="317.662" x2="2016.25" y2="812.25" gradientUnits="userSpaceOnUse">
<stop stop-color="white"/>
<stop offset="1" stop-color="#003366"/>
</linearGradient>
<linearGradient id="paint8_linear_7713_1699" x1="2016.73" y1="361.833" x2="2016.73" y2="812.25" gradientUnits="userSpaceOnUse">
<stop stop-color="white"/>
<stop offset="1" stop-color="#003366"/>
</linearGradient>
<linearGradient id="paint9_linear_7713_1699" x1="2017.21" y1="406.005" x2="2017.21" y2="812.25" gradientUnits="userSpaceOnUse">
<stop stop-color="white"/>
<stop offset="1" stop-color="#003366"/>
</linearGradient>
<linearGradient id="paint10_linear_7713_1699" x1="1717.19" y1="8.29834" x2="1717.19" y2="812.25" gradientUnits="userSpaceOnUse">
<stop stop-color="white"/>
<stop offset="1" stop-color="#003366"/>
</linearGradient>
<linearGradient id="paint11_linear_7713_1699" x1="1717.67" y1="52.4697" x2="1717.67" y2="812.25" gradientUnits="userSpaceOnUse">
<stop stop-color="white"/>
<stop offset="1" stop-color="#003366"/>
</linearGradient>
<linearGradient id="paint12_linear_7713_1699" x1="1718.15" y1="96.6411" x2="1718.15" y2="812.25" gradientUnits="userSpaceOnUse">
<stop stop-color="white"/>
<stop offset="1" stop-color="#003366"/>
</linearGradient>
<linearGradient id="paint13_linear_7713_1699" x1="1718.71" y1="140.812" x2="1718.71" y2="812.25" gradientUnits="userSpaceOnUse">
<stop stop-color="white"/>
<stop offset="1" stop-color="#003366"/>
</linearGradient>
<linearGradient id="paint14_linear_7713_1699" x1="1719.19" y1="185.148" x2="1719.19" y2="812.25" gradientUnits="userSpaceOnUse">
<stop stop-color="white"/>
<stop offset="1" stop-color="#003366"/>
</linearGradient>
<linearGradient id="paint15_linear_7713_1699" x1="1719.67" y1="229.319" x2="1719.67" y2="812.25" gradientUnits="userSpaceOnUse">
<stop stop-color="white"/>
<stop offset="1" stop-color="#003366"/>
</linearGradient>
<linearGradient id="paint16_linear_7713_1699" x1="1720.15" y1="273.491" x2="1720.15" y2="812.25" gradientUnits="userSpaceOnUse">
<stop stop-color="white"/>
<stop offset="1" stop-color="#003366"/>
</linearGradient>
<linearGradient id="paint17_linear_7713_1699" x1="1720.64" y1="317.662" x2="1720.64" y2="812.25" gradientUnits="userSpaceOnUse">
<stop stop-color="white"/>
<stop offset="1" stop-color="#003366"/>
</linearGradient>
<linearGradient id="paint18_linear_7713_1699" x1="1721.12" y1="361.833" x2="1721.12" y2="812.25" gradientUnits="userSpaceOnUse">
<stop stop-color="white"/>
<stop offset="1" stop-color="#003366"/>
</linearGradient>
<linearGradient id="paint19_linear_7713_1699" x1="1721.6" y1="406.005" x2="1721.6" y2="812.25" gradientUnits="userSpaceOnUse">
<stop stop-color="white"/>
<stop offset="1" stop-color="#003366"/>
</linearGradient>
<linearGradient id="paint20_linear_7713_1699" x1="175.796" y1="284.162" x2="175.796" y2="1088.11" gradientUnits="userSpaceOnUse">
<stop stop-color="white"/>
<stop offset="1" stop-color="#003366"/>
</linearGradient>
<linearGradient id="paint21_linear_7713_1699" x1="176.348" y1="328.333" x2="176.348" y2="1088.11" gradientUnits="userSpaceOnUse">
<stop stop-color="white"/>
<stop offset="1" stop-color="#003366"/>
</linearGradient>
<linearGradient id="paint22_linear_7713_1699" x1="176.831" y1="372.505" x2="176.831" y2="1088.11" gradientUnits="userSpaceOnUse">
<stop stop-color="white"/>
<stop offset="1" stop-color="#003366"/>
</linearGradient>
<linearGradient id="paint23_linear_7713_1699" x1="177.314" y1="416.676" x2="177.314" y2="1088.11" gradientUnits="userSpaceOnUse">
<stop stop-color="white"/>
<stop offset="1" stop-color="#003366"/>
</linearGradient>
<linearGradient id="paint24_linear_7713_1699" x1="177.797" y1="461.011" x2="177.797" y2="1088.11" gradientUnits="userSpaceOnUse">
<stop stop-color="white"/>
<stop offset="1" stop-color="#003366"/>
</linearGradient>
<linearGradient id="paint25_linear_7713_1699" x1="178.28" y1="505.183" x2="178.28" y2="1088.11" gradientUnits="userSpaceOnUse">
<stop stop-color="white"/>
<stop offset="1" stop-color="#003366"/>
</linearGradient>
<linearGradient id="paint26_linear_7713_1699" x1="178.763" y1="549.354" x2="178.763" y2="1088.11" gradientUnits="userSpaceOnUse">
<stop stop-color="white"/>
<stop offset="1" stop-color="#003366"/>
</linearGradient>
<linearGradient id="paint27_linear_7713_1699" x1="179.247" y1="593.526" x2="179.247" y2="1088.11" gradientUnits="userSpaceOnUse">
<stop stop-color="white"/>
<stop offset="1" stop-color="#003366"/>
</linearGradient>
<linearGradient id="paint28_linear_7713_1699" x1="179.73" y1="637.697" x2="179.73" y2="1088.11" gradientUnits="userSpaceOnUse">
<stop stop-color="white"/>
<stop offset="1" stop-color="#003366"/>
</linearGradient>
<linearGradient id="paint29_linear_7713_1699" x1="180.213" y1="681.868" x2="180.213" y2="1088.11" gradientUnits="userSpaceOnUse">
<stop stop-color="white"/>
<stop offset="1" stop-color="#003366"/>
</linearGradient>
<linearGradient id="paint30_linear_7713_1699" x1="-119.813" y1="284.162" x2="-119.813" y2="1088.11" gradientUnits="userSpaceOnUse">
<stop stop-color="white"/>
<stop offset="1" stop-color="#003366"/>
</linearGradient>
<linearGradient id="paint31_linear_7713_1699" x1="-119.33" y1="328.333" x2="-119.33" y2="1088.11" gradientUnits="userSpaceOnUse">
<stop stop-color="white"/>
<stop offset="1" stop-color="#003366"/>
</linearGradient>
<linearGradient id="paint32_linear_7713_1699" x1="-118.847" y1="372.505" x2="-118.847" y2="1088.11" gradientUnits="userSpaceOnUse">
<stop stop-color="white"/>
<stop offset="1" stop-color="#003366"/>
</linearGradient>
<linearGradient id="paint33_linear_7713_1699" x1="-118.295" y1="416.676" x2="-118.295" y2="1088.11" gradientUnits="userSpaceOnUse">
<stop stop-color="white"/>
<stop offset="1" stop-color="#003366"/>
</linearGradient>
<linearGradient id="paint34_linear_7713_1699" x1="-117.812" y1="461.011" x2="-117.812" y2="1088.11" gradientUnits="userSpaceOnUse">
<stop stop-color="white"/>
<stop offset="1" stop-color="#003366"/>
</linearGradient>
<linearGradient id="paint35_linear_7713_1699" x1="-117.328" y1="505.183" x2="-117.328" y2="1088.11" gradientUnits="userSpaceOnUse">
<stop stop-color="white"/>
<stop offset="1" stop-color="#003366"/>
</linearGradient>
<linearGradient id="paint36_linear_7713_1699" x1="-116.845" y1="549.354" x2="-116.845" y2="1088.11" gradientUnits="userSpaceOnUse">
<stop stop-color="white"/>
<stop offset="1" stop-color="#003366"/>
</linearGradient>
<linearGradient id="paint37_linear_7713_1699" x1="-116.362" y1="593.526" x2="-116.362" y2="1088.11" gradientUnits="userSpaceOnUse">
<stop stop-color="white"/>
<stop offset="1" stop-color="#003366"/>
</linearGradient>
<linearGradient id="paint38_linear_7713_1699" x1="-115.879" y1="637.697" x2="-115.879" y2="1088.11" gradientUnits="userSpaceOnUse">
<stop stop-color="white"/>
<stop offset="1" stop-color="#003366"/>
</linearGradient>
<linearGradient id="paint39_linear_7713_1699" x1="-115.396" y1="681.868" x2="-115.396" y2="1088.11" gradientUnits="userSpaceOnUse">
<stop stop-color="white"/>
<stop offset="1" stop-color="#003366"/>
</linearGradient>
<clipPath id="clip0_7713_1699">
<rect width="621" height="796.674" fill="white" transform="translate(1299)"/>
</clipPath>
<clipPath id="clip1_7713_1699">
<rect width="593.914" height="709.872" fill="white" transform="translate(-1.52588e-05 275.863)"/>
</clipPath>
</defs>
</svg>
